<svg xmlns="http://www.w3.org/2000/svg" width="1200" height="900" viewBox="0 0 1200 900">
  <defs>
    <linearGradient id="bg" x1="0" y1="0" x2="1" y2="1">
      <stop offset="0%" stop-color="#f2efe7"/>
      <stop offset="100%" stop-color="#8b8679"/>
    </linearGradient>
    <radialGradient id="discA" cx="35%" cy="35%" r="80%">
      <stop offset="0%" stop-color="#ffffff"/>
      <stop offset="100%" stop-color="#4c493f"/>
    </radialGradient>
    <radialGradient id="discB" cx="40%" cy="30%" r="85%">
      <stop offset="0%" stop-color="#c9c4b5"/>
      <stop offset="100%" stop-color="#191813"/>
    </radialGradient>
    <linearGradient id="bar" x1="0" y1="0" x2="1" y2="0">
      <stop offset="0%" stop-color="#211f1a"/>
      <stop offset="100%" stop-color="#b3ada0"/>
    </linearGradient>
  </defs>

  <rect width="1200" height="900" fill="url(#bg)"/>

  <rect x="90" y="90" width="1020" height="720" fill="none" stroke="#2a2822" stroke-width="6"/>
  <rect x="130" y="540" width="940" height="90" fill="url(#bar)"/>
  <rect x="130" y="660" width="700" height="26" fill="#33312a"/>
  <rect x="130" y="710" width="520" height="26" fill="#545146"/>

  <circle cx="430" cy="330" r="190" fill="url(#discA)"/>
  <circle cx="700" cy="300" r="150" fill="url(#discB)" opacity="0.88"/>
  <circle cx="590" cy="420" r="90" fill="#efece3" opacity="0.85"/>

  <g stroke="#26241f" stroke-width="4" opacity="0.75">
    <line x1="880" y1="150" x2="1060" y2="150"/>
    <line x1="880" y1="190" x2="1060" y2="190"/>
    <line x1="880" y1="230" x2="1060" y2="230"/>
    <line x1="880" y1="270" x2="1060" y2="270"/>
    <line x1="880" y1="310" x2="1060" y2="310"/>
  </g>
  <polygon points="180,470 280,300 380,470" fill="#1d1c18"/>
</svg>
